<svg viewBox="0 0 395.52 100.20707368421051" height="100.20707368421051" width="395.52"><path d="M394.594 21.493C392.735 11.091 387.435 8.199 387.435 8.199 371.165-2.514 350.86-0.205 332.619 1.334 300.414 1.397 268.339 3.685 236.208 4.913 168.767 5.1 100.749 2.021 33.643 9.614 27.339 11.944-6.54 10.072 1.121 22.824 3.129 28.129 10.456 34.016 10.232 38.884 11.236 39.737 12.631 37.781 13.226 39.009 15.309 42.316 18.711 40.756 21.501 42.711 17.614 47.933 20.403 52.281 23.062 56.837 18.377 58.022 12.371 57.461 9.675 61.392 9.396 64.242 7.89 63.702 6.235 63.577 5.026 63.494 2.59 63.806 2.999 64.7 4.394 67.758-1.594 69.526 2.162 72.522-0.422 75.767 3.948 78.576 3.353 82.091 3.278 82.799 3.687 83.402 4.338 83.568 7.22 84.463 3.018 86.21 3.464 88.103 33.029 101.043 65.104 92.098 95.394 98.047 103.259 93.887 97.346 99.524 100.489 98.651 102.943 97.631 104.728 101.854 107.499 99.462 107.927 98.775 107.276 97.153 108.8 97.465 109.6 97.631 110.307 97.59 110.418 96.633 110.586 95.197 109.117 96.092 108.726 95.343 112.947 91.557 111.906 100.564 115.866 100.19 115.68 99.087 114.528 97.506 116.889 97.714 119.232 96.133 119.306 94.823 121.389 98.38 121.463 99.15 121.835 99.691 122.43 100.065 128.938 96.196 135.409 101.438 142.233 99.691 146.417 97.777 150.433 100.731 154.672 100.003 156.16 99.42 157.666 98.38 159.098 100.128 176.632 100.502 195.319 98.942 211.943 100.19 256.364 97.86 303.835 101.147 350.674 98.068 361.719 96.882 373.192 95.197 383.958 93.845 383.958 93.845 392.679 90.142 392.679 73.5S394.538 58.938 394.817 45.686C395.096 32.435 396.398 31.894 394.538 21.493Z" opacity="1" fill="#f1f5f9" data-fill-palette-color="tertiary"></path><g transform="matrix(1,0,0,1,55.76832,26.230666666666668)"><svg width="283.98335999999995" viewBox="3.549999952316284 -34.5 205.19000244140625 34.5" height="47.745740350877185" data-palette-color="#09090b"><path d="M20.65 0L20.65-15.7 9.35-15.7 9.35 0 3.55 0 3.55-34.5 9.35-34.5 9.35-20.45 20.65-20.45 20.65-34.5 26.45-34.5 26.45 0 20.65 0ZM51.05-8.3L38.75-8.3 36.35 0 30.4 0 41.4-34.5 48.6-34.5 59.6 0 53.45 0 51.05-8.3ZM39.95-12.8L49.85-12.8 44.9-30 39.95-12.8ZM77.9-13.2L77.9 0 72.09 0 72.09-13.15 60.55-34.5 66.95-34.5 75.09-18.15 83.34-34.5 89.45-34.5 77.9-13.2ZM107.84-29.8L107.84 0 102.04 0 102.04-29.8 91.64-29.8 91.64-34.5 118.39-34.5 117.79-29.8 107.84-29.8ZM140.64 0L140.64-15.7 129.34-15.7 129.34 0 123.54 0 123.54-34.5 129.34-34.5 129.34-20.45 140.64-20.45 140.64-34.5 146.44-34.5 146.44 0 140.64 0ZM171.04-8.3L158.74-8.3 156.34 0 150.39 0 161.39-34.5 168.59-34.5 179.59 0 173.44 0 171.04-8.3ZM159.94-12.8L169.84-12.8 164.89-30 159.94-12.8ZM206.79-34.5L208.74 0 203.39 0 202.59-16.8Q202.44-20.1 202.44-23.15L202.44-23.15Q202.44-27.1 202.59-29.4L202.59-29.4 197.49-6.1 192.44-6.1 186.99-29.4Q187.19-26.85 187.19-21.55L187.19-21.55Q187.19-18.35 187.14-16.75L187.14-16.75 186.44 0 181.24 0 183.19-34.5 190.14-34.5 195.09-11.4 199.79-34.5 206.79-34.5Z" opacity="1" transform="matrix(1,0,0,1,0,0)" fill="#09090b" class="wordmark-text-0" data-fill-palette-color="quaternary" id="text-0"></path></svg></g></svg>